<!-- Project Lavos Watermark - Auriga Chariot -->
<!-- The charioteer holds the reins. The horses provide the power. Neither is complete alone. -->
<!DOCTYPE svg PUBLIC "-//W3C//DTD SVG 20010904//EN"
 "http://www.w3.org/TR/2001/REC-SVG-20010904/DTD/svg10.dtd">
<svg version="1.0" xmlns="http://www.w3.org/2000/svg"
 width="100%" height="100%" viewBox="0 0 1200.000000 560.000000"
 preserveAspectRatio="xMidYMid meet">
<g transform="translate(0.000000,560.000000) scale(0.100000,-0.100000)"
fill="#d4a574" stroke="none">
<path d="M4080 4732 c0 -31 16 -52 40 -52 8 0 33 -16 55 -36 86 -77 195 -108
370 -106 104 1 139 6 260 38 183 48 258 63 322 64 95 0 229 -36 334 -92 57
-30 117 -83 107 -94 -3 -3 -30 0 -59 6 -183 38 -209 40 -318 24 -96 -14 -165
-31 -216 -54 -28 -12 -125 -44 -215 -71 -55 -16 -102 -22 -175 -22 -123 -1
-195 16 -257 60 -53 37 -61 39 -77 19 -15 -18 -4 -45 23 -57 11 -5 28 -13 36
-17 94 -54 143 -65 259 -63 58 1 108 4 112 7 4 2 50 12 101 20 51 9 145 34
208 55 164 55 243 65 389 50 152 -15 191 -22 191 -31 0 -14 -35 -17 -102 -7
-85 13 -133 0 -184 -49 -20 -20 -60 -47 -88 -59 -231 -102 -314 -127 -431
-128 -84 0 -147 19 -158 48 -4 8 -11 15 -18 15 -6 0 -19 10 -28 22 -24 28 -41
16 -41 -30 1 -56 21 -82 77 -102 75 -26 154 -33 240 -20 74 11 251 68 338 109
108 50 268 80 358 67 38 -6 53 -14 75 -42 36 -46 83 -68 129 -61 89 15 93 71
11 188 -50 73 -239 269 -258 269 -5 0 -31 13 -57 29 -141 85 -304 97 -553 38
-170 -40 -255 -50 -405 -46 l-140 4 -85 41 c-47 23 -96 53 -109 68 -33 35 -61
35 -61 -2z M6110 4561 c-19 -4 -50 -15 -68 -25 -56 -29 -142 -128 -142 -163 0
-11 29 -53 64 -93 48 -54 65 -82 70 -112 4 -21 4 -43 1 -47 -2 -5 -53 -6 -112
-3 -137 6 -241 -19 -318 -77 -27 -20 -84 -54 -125 -75 -220 -112 -493 -308
-554 -399 -14 -20 -32 -58 -39 -84 -13 -43 -17 -48 -43 -49 -70 -1 -118 -47
-112 -106 4 -46 34 -50 68 -9 26 33 60 35 60 5 0 -7 9 -18 21 -24 33 -18 54
10 68 89 15 82 24 92 144 155 49 26 107 59 130 73 60 37 203 103 226 103 11 0
23 5 26 10 3 6 17 10 29 10 13 0 35 9 49 20 39 31 58 27 51 -12 -30 -179 -66
-299 -116 -388 -34 -60 -39 -110 -17 -152 17 -32 113 -134 139 -148 42 -23 20
-77 -64 -158 -21 -20 -59 -64 -84 -97 -25 -33 -49 -61 -54 -63 -4 -2 -8 -8 -8
-13 0 -6 -13 -27 -29 -47 -31 -38 -54 -98 -66 -167 -3 -22 -11 -54 -17 -72
-13 -35 1 -63 30 -63 8 0 52 38 96 83 45 46 106 99 137 118 30 19 64 40 75 47
10 6 26 15 34 19 8 4 32 17 52 30 21 13 68 34 104 48 37 14 73 33 80 43 53 69
-56 48 -206 -39 -30 -18 -104 -59 -165 -92 -60 -32 -117 -65 -126 -73 -22 -20
-29 -17 -29 11 0 18 16 40 51 73 28 26 79 81 114 122 35 41 89 102 119 135 31
33 56 68 56 78 0 12 8 17 28 17 32 0 52 -16 52 -42 0 -31 40 -47 104 -44 33 1
77 -1 100 -5 47 -8 58 -5 49 17 -6 15 -73 54 -94 54 -7 0 -20 6 -28 13 -9 7
-67 33 -129 57 -88 34 -120 52 -144 79 -18 20 -51 51 -75 69 -26 20 -43 41
-43 54 0 11 15 59 34 107 54 137 66 171 64 179 -2 10 13 65 22 77 4 6 8 31 9
57 2 59 21 103 60 146 37 39 48 76 30 98 -20 24 -52 13 -61 -21 -10 -40 -33
-55 -83 -55 -48 0 -80 -9 -185 -53 -98 -41 -193 -92 -328 -175 -45 -28 -84
-47 -86 -43 -5 8 69 67 112 90 12 7 72 49 133 95 159 120 254 173 454 253 62
25 83 28 185 28 76 0 146 -7 207 -19 76 -16 98 -18 130 -8 71 22 104 67 137
185 13 44 21 57 36 57 23 0 70 65 70 98 0 25 -146 184 -192 208 -28 15 -108
17 -168 5z m142 -77 c50 -26 128 -104 128 -128 0 -12 5 -27 10 -32 6 -6 8 -18
4 -27 -7 -19 -34 -23 -34 -6 0 21 -60 87 -94 103 -68 32 -153 11 -176 -44 -6
-14 -21 -39 -34 -55 l-24 -30 -26 24 c-52 49 -21 113 77 160 36 17 74 31 85
31 12 0 24 5 27 10 9 14 21 13 57 -6z m17 -188 c13 -26 26 -70 29 -96 4 -44 2
-49 -29 -72 -56 -40 -103 -50 -151 -29 -39 16 -40 18 -23 35 13 13 18 36 20
85 3 99 30 131 105 127 19 -1 30 -12 49 -50z M6073 3944 c-3 -9 0 -26 7 -38 7
-11 45 -84 84 -161 69 -136 151 -255 208 -303 28 -24 37 -52 18 -52 -85 0
-310 280 -310 386 0 35 -28 74 -53 74 -8 0 -22 -9 -33 -21 -15 -16 -16 -24 -6
-39 29 -46 22 -157 -11 -192 -21 -23 -77 -96 -77 -101 0 -3 -13 -25 -28 -49
-43 -65 -55 -100 -43 -130 14 -36 74 -94 124 -119 23 -12 71 -51 106 -88 60
-62 83 -100 147 -249 15 -35 49 -54 83 -45 14 3 23 0 27 -12 9 -22 96 -104
111 -105 22 0 25 21 6 42 -10 11 -16 22 -13 24 5 4 -12 14 -81 51 -24 12 -87
104 -128 186 -16 32 -97 117 -135 142 -74 49 40 23 151 -34 50 -25 150 -116
185 -168 26 -38 81 -218 93 -305 9 -58 -6 -63 -50 -17 -37 40 -188 114 -263
129 -59 12 -107 28 -181 61 -52 24 -61 18 -80 -48 -31 -115 -29 -113 -127
-147 -97 -35 -131 -54 -245 -142 -94 -73 -143 -128 -136 -153 7 -28 -55 -36
-102 -14 -20 9 -38 20 -41 23 -14 18 -123 71 -183 89 -103 31 -202 36 -357 16
-198 -26 -292 -18 -401 33 -95 43 -121 66 -150 131 -23 53 -23 47 3 54 16 5
41 -6 88 -37 77 -51 93 -58 143 -61 50 -4 48 11 -13 78 -47 52 -49 56 -39 86
10 27 7 39 -14 84 -34 73 -95 136 -143 149 -21 6 -71 10 -110 9 -55 -2 -74 1
-84 14 -12 15 -12 19 5 31 10 8 33 14 49 14 45 0 166 -27 182 -41 7 -6 18 -8
24 -4 15 9 12 36 -7 50 -19 14 -9 35 18 35 10 0 19 5 19 10 0 16 -30 24 -43
11 -19 -19 -35 -12 -51 21 -9 17 -16 36 -16 41 0 6 -16 25 -35 44 -24 24 -35
43 -35 63 0 24 -4 30 -21 30 -12 0 -19 5 -16 13 2 6 12 11 21 11 22 -2 20 9
-4 23 -17 11 -50 9 -112 -5 -5 -1 -21 -2 -38 -2 -21 0 -30 -5 -30 -16 0 -12
-5 -10 -19 7 -16 20 -17 25 -5 32 8 4 14 20 14 35 0 38 -42 52 -152 49 -77 -2
-89 0 -110 21 -30 27 -54 28 -68 2 -9 -16 -20 -20 -51 -18 -42 2 -59 -11 -59
-45 0 -28 -39 -116 -79 -177 -20 -30 -80 -100 -134 -156 -54 -55 -105 -112
-114 -125 -9 -13 -19 -26 -22 -29 -4 -3 -12 -18 -20 -35 -7 -16 -17 -38 -22
-47 -16 -32 71 -98 131 -98 31 0 80 19 80 30 0 18 74 39 175 50 61 6 119 12
130 13 24 2 23 -19 -5 -168 -11 -55 -35 -194 -55 -308 -36 -215 -62 -336 -75
-350 -4 -4 -48 2 -99 14 l-92 22 -52 -56 c-29 -31 -67 -85 -86 -119 -19 -35
-65 -110 -102 -168 -64 -99 -114 -196 -126 -244 -3 -11 -10 -61 -16 -109 -12
-102 -5 -120 39 -97 37 20 47 45 54 135 9 99 35 168 102 271 28 43 65 106 82
139 16 33 38 67 48 76 10 9 18 21 18 26 0 5 13 22 29 37 24 23 35 27 62 22 19
-4 70 -11 114 -16 71 -9 81 -8 93 7 7 10 10 23 8 30 -7 18 40 297 73 438 38
160 38 159 58 320 19 159 20 242 3 259 -9 8 -14 8 -17 -2 -3 -8 -19 -29 -35
-48 -33 -38 -105 -64 -175 -64 -23 0 -89 -16 -145 -35 -112 -38 -169 -46 -148
-20 6 8 9 18 6 24 -3 5 1 12 10 15 8 3 12 10 9 16 -3 5 54 69 128 142 148 147
174 182 208 284 13 38 24 70 25 72 0 1 19 -14 41 -35 22 -21 66 -55 99 -75
173 -110 305 -299 389 -558 37 -114 62 -166 104 -220 43 -55 46 -58 96 -70 22
-6 49 -15 60 -20 68 -31 256 -39 385 -16 148 26 247 30 331 12 103 -22 172
-57 208 -106 33 -46 74 -142 90 -216 15 -63 5 -213 -16 -264 -8 -19 -19 -44
-23 -55 -5 -11 -20 -46 -34 -77 -14 -31 -26 -65 -26 -74 0 -33 53 -94 151
-175 54 -45 96 -86 92 -91 -3 -6 -7 -48 -8 -93 -3 -79 -12 -153 -37 -310 -6
-38 -10 -89 -9 -112 1 -34 -3 -45 -25 -60 -40 -29 -26 -59 32 -68 65 -9 104 1
104 29 0 12 -5 27 -11 33 -29 29 -18 314 18 488 22 104 22 136 -2 149 -87 49
-220 179 -211 206 34 106 56 209 67 313 11 109 15 127 30 127 9 0 19 -7 23
-15 4 -11 13 -14 29 -10 22 6 27 0 58 -77 28 -70 34 -96 35 -165 1 -71 -1 -83
-16 -83 -22 0 -64 47 -80 90 -26 70 -44 64 -49 -14 -2 -55 22 -86 121 -152 40
-27 75 -52 76 -56 2 -5 8 -8 14 -8 5 0 21 -9 35 -20 13 -10 76 -35 138 -55 97
-31 127 -36 205 -36 101 1 315 40 371 69 162 84 299 237 299 334 0 19 -9 76
-20 127 l-20 93 39 46 c21 26 41 55 44 65 11 30 30 20 24 -13 -4 -16 -9 -112
-13 -212 -5 -149 -3 -196 10 -251 9 -38 16 -80 16 -95 0 -27 -57 -107 -138
-192 -18 -19 -35 -45 -38 -57 -4 -13 3 -76 15 -140 20 -119 37 -229 45 -293 2
-19 -4 -57 -14 -85 -43 -121 -37 -133 73 -136 42 -1 80 1 83 4 13 12 -18 47
-41 47 -14 0 -33 4 -43 9 -9 5 -25 12 -34 15 -27 8 -22 29 5 23 12 -3 35 -9
51 -13 l28 -7 -6 44 c-4 24 -11 73 -16 109 -6 36 -19 124 -29 195 -11 72 -22
149 -25 173 -8 54 8 88 78 174 94 114 98 134 52 313 -17 66 -28 143 -32 226
l-7 125 27 27 c14 14 26 35 26 47 0 23 19 61 37 73 7 4 18 13 25 20 19 18 79
52 108 61 42 12 173 35 180 31 30 -19 590 -25 612 -7 7 5 28 13 46 17 50 10
78 56 152 241 119 300 172 387 319 525 60 55 123 110 142 122 35 22 80 47 83
47 2 0 15 -28 31 -62 35 -78 54 -102 100 -134 87 -59 215 -179 215 -201 0 -5
14 -22 30 -38 17 -16 30 -32 30 -37 0 -4 -17 -15 -37 -23 -34 -14 -43 -14
-116 5 -44 11 -85 25 -93 31 -8 6 -20 7 -31 2 -29 -14 -100 -7 -118 11 -9 9
-19 16 -23 16 -4 0 -15 14 -24 31 -25 43 -48 34 -65 -24 -12 -42 -12 -54 1
-90 19 -55 41 -172 80 -417 38 -237 54 -408 42 -429 -13 -21 -73 8 -127 62
-57 57 -109 83 -109 55 0 -8 11 -27 25 -42 14 -15 25 -30 25 -35 0 -4 14 -20
30 -36 17 -16 30 -34 30 -40 0 -6 12 -22 26 -36 14 -13 34 -38 45 -55 11 -18
26 -35 34 -38 23 -9 175 22 223 45 39 19 53 41 34 53 -4 3 -27 0 -51 -5 -81
-18 -151 -20 -172 -6 -40 29 -1 37 149 32 166 -5 176 -9 216 -93 37 -77 58
-116 66 -122 11 -10 85 -126 114 -180 16 -30 35 -60 42 -68 10 -9 13 -40 12
-106 -1 -51 2 -98 6 -104 5 -9 62 -42 73 -42 9 0 2 254 -8 273 -7 12 -33 49
-59 82 -57 73 -163 237 -200 309 -8 15 -33 47 -55 71 -39 42 -42 42 -123 49
-46 4 -105 4 -132 0 l-48 -6 -6 53 c-3 30 -8 83 -11 119 -4 36 -20 144 -36
240 -34 200 -59 373 -59 408 0 22 2 23 43 17 58 -9 168 -35 192 -45 121 -49
165 -46 235 20 53 49 39 104 -45 180 -137 125 -286 297 -303 350 -6 19 -14 54
-17 77 -7 46 -17 57 -58 67 -43 10 -70 -10 -63 -45 7 -35 0 -36 -74 -8 -46 18
-68 20 -135 16 -93 -7 -167 -32 -163 -56 3 -12 22 -16 98 -18 92 -2 175 -18
185 -34 3 -4 -9 -17 -25 -29 -27 -19 -35 -21 -61 -10 -48 20 -295 18 -342 -3
-82 -36 -24 -53 191 -57 67 -1 122 -6 122 -10 0 -5 -30 -31 -67 -59 -66 -49
-70 -51 -125 -48 -32 2 -61 6 -64 10 -4 4 -1 7 6 7 7 0 10 3 6 8 -4 4 -13 7
-19 7 -5 0 -12 5 -14 12 -4 10 31 16 127 23 37 3 60 11 55 20 -7 11 -205 7
-223 -4 -7 -4 -10 -16 -7 -26 3 -11 0 -20 -11 -24 -9 -4 -14 -13 -10 -21 3 -9
0 -15 -9 -15 -9 0 -23 -9 -32 -20 -10 -11 -25 -20 -33 -20 -9 0 -31 -13 -49
-29 -26 -23 -31 -34 -25 -55 3 -14 13 -26 21 -26 19 0 56 20 65 35 10 16 113
38 158 33 44 -4 50 -28 16 -63 -22 -22 -34 -25 -93 -26 -112 -1 -136 -9 -199
-68 l-57 -54 -102 7 c-88 6 -152 19 -300 63 -11 4 -29 12 -40 19 -11 7 -45 22
-75 34 -30 12 -77 32 -105 44 -27 13 -79 36 -115 52 -35 16 -92 48 -126 70
-34 23 -81 52 -105 65 -24 13 -49 31 -55 39 -10 12 -156 168 -181 192 -210
203 -194 182 -277 349 -93 188 -144 252 -163 203z m10 -291 c7 -35 128 -218
172 -260 34 -32 139 -103 153 -103 5 0 22 -14 39 -31 18 -16 59 -43 93 -60 34
-16 85 -47 113 -68 50 -36 109 -69 277 -152 255 -125 433 -185 635 -215 55 -8
118 -17 140 -20 41 -6 115 16 115 34 0 10 94 58 130 66 14 3 32 1 40 -4 24
-15 -9 -66 -40 -62 -25 3 -50 -5 -135 -43 -27 -12 -62 -27 -78 -33 -19 -8 -29
-21 -33 -42 -4 -16 -13 -35 -20 -41 -18 -15 -18 -53 -1 -68 15 -12 129 -9 162
5 11 4 27 17 37 29 22 28 30 15 17 -26 -16 -48 -26 -58 -83 -85 -77 -37 -158
-45 -436 -43 -140 1 -271 -1 -290 -5 -62 -13 -144 -47 -177 -72 -17 -13 -56
-38 -87 -54 -45 -25 -60 -29 -76 -20 -11 6 -50 13 -88 17 -84 7 -88 10 -115
63 -20 38 -104 112 -157 137 -8 4 -31 18 -50 31 -58 39 -199 100 -253 109 -35
5 -39 4 -35 -13 2 -11 24 -29 53 -43 28 -13 59 -28 70 -34 11 -6 44 -23 73
-38 138 -73 273 -194 245 -219 -4 -4 -34 -17 -65 -29 -58 -21 -89 -36 -117
-58 -191 -148 -250 -183 -309 -183 -24 0 -35 -23 -19 -39 6 -6 39 -11 74 -11
65 0 89 9 154 63 130 107 170 129 276 152 94 21 137 17 141 -12 2 -14 -4 -27
-17 -35 -24 -15 -27 -28 -7 -28 26 0 27 -30 2 -42 -14 -6 -27 -18 -29 -27 -29
-90 -90 -250 -109 -288 -31 -58 -154 -163 -213 -181 -118 -36 -209 -41 -295
-16 -30 9 -74 19 -96 23 -34 6 -53 19 -100 70 -73 78 -99 120 -119 194 -37
140 -45 164 -64 201 -27 51 -35 56 -103 56 -55 0 -58 1 -72 33 -8 17 -17 42
-21 55 -7 25 -24 25 155 1 81 -10 134 -30 193 -71 20 -15 27 -28 27 -53 0 -25
8 -40 31 -59 17 -14 38 -26 47 -26 25 0 42 -33 47 -91 3 -28 12 -64 20 -79 21
-40 82 -83 148 -104 29 -9 143 24 165 48 22 23 62 116 62 143 0 9 11 29 25 43
14 15 28 43 32 63 5 33 3 37 -15 37 -11 0 -24 -5 -27 -10 -3 -5 -14 -10 -24
-10 -23 0 -42 -22 -62 -74 -19 -46 -23 -47 -123 -27 -32 7 -75 10 -95 6 -35
-5 -37 -4 -66 47 -16 28 -37 61 -45 73 -8 12 -24 35 -34 51 -59 88 -211 177
-324 190 -90 10 -90 10 4 95 96 87 366 243 384 222 19 -22 59 -331 45 -353 -4
-7 -16 -4 -33 8 -31 21 -146 85 -212 118 -32 16 -49 20 -62 13 -26 -14 -22
-36 10 -48 34 -13 145 -75 184 -103 38 -26 70 -59 97 -97 20 -28 26 -30 65
-26 24 2 66 16 92 31 76 42 235 219 219 244 -3 6 -17 10 -30 10 -18 0 -35 -16
-70 -64 -52 -73 -147 -156 -179 -156 -13 0 -5 28 10 34 12 5 15 14 10 39 -22
111 -35 229 -38 342 l-3 130 45 -3 c131 -8 341 -114 448 -226 64 -67 87 -62
71 14 -9 43 -21 132 -34 265 -8 81 -21 127 -45 158 -11 14 -20 30 -20 37 0 18
-124 136 -182 172 -54 35 -103 56 -238 103 -41 14 -86 34 -100 43 -14 9 -29
17 -35 17 -54 2 -25 96 69 220 31 41 49 77 57 113 11 55 23 61 32 15z m-2246
-330 c2 -6 -4 -13 -14 -16 -15 -4 -15 -5 3 -6 11 0 25 4 32 11 9 9 12 9 12 -3
0 -33 -66 -44 -123 -21 -16 7 -27 18 -24 25 8 24 107 33 114 10z m208 -139
c10 -15 14 -32 9 -42 -4 -9 -8 -21 -8 -27 -1 -5 -27 -11 -60 -11 -53 -2 -62 1
-87 27 -43 44 -38 57 29 64 31 4 62 8 67 10 23 8 34 4 50 -21z m3965 -64 c0
-5 -4 -10 -10 -10 -5 0 -10 5 -10 10 0 6 5 10 10 10 6 0 10 -4 10 -10z m-3789
-301 c57 -19 82 -69 34 -69 -14 0 -25 4 -25 9 0 5 -17 7 -38 4 -34 -4 -42 -1
-60 22 -12 15 -22 32 -22 36 0 13 71 11 111 -2z m3639 -228 c0 -12 -26 -32
-33 -25 -6 7 14 33 26 34 4 0 7 -4 7 -9z m-1214 -697 c-1 -69 -7 -98 -23 -130
-41 -78 -162 -193 -193 -182 -11 3 -1 22 45 88 17 24 35 50 40 59 6 9 12 18
16 21 12 11 39 80 64 165 15 50 30 94 33 99 12 20 20 -35 18 -120z m-614 -50
c17 -9 56 -17 87 -19 58 -2 76 -16 42 -35 -24 -12 -122 -6 -151 10 -12 6 -20
21 -20 35 0 29 2 30 42 9z m338 -294 c0 -5 -7 -10 -16 -10 -8 0 -12 5 -9 10 3
6 10 10 16 10 5 0 9 -4 9 -10z M3735 2056 c-44 -45 -99 -93 -122 -106 -25 -14
-43 -32 -45 -44 -3 -19 -10 -21 -88 -22 -83 -1 -180 -20 -180 -35 0 -17 90
-34 180 -33 124 1 155 15 209 98 22 34 53 75 69 91 69 73 102 137 70 134 -7 0
-49 -38 -93 -83z M7296 1818 c-38 -84 -65 -118 -137 -174 -33 -26 -100 -87
-147 -136 -48 -49 -115 -108 -149 -131 -40 -26 -63 -48 -63 -60 0 -16 5 -18
38 -12 39 6 47 2 147 -85 22 -20 76 -62 119 -94 153 -113 219 -189 282 -321
41 -87 64 -115 94 -115 15 0 20 7 20 24 0 14 -4 28 -10 31 -5 3 -10 16 -10 28
0 12 -21 58 -47 102 -45 77 -154 192 -300 316 -63 54 -68 65 -47 98 29 45 149
202 223 290 65 79 92 121 105 164 8 26 40 21 161 -27 197 -80 374 -98 530 -55
64 17 83 19 98 9 11 -7 49 -23 84 -36 73 -28 194 -34 303 -15 130 23 130 22
130 9 0 -7 -11 -23 -24 -36 -13 -12 -42 -56 -63 -97 -21 -41 -42 -75 -48 -75
-21 0 -158 -77 -202 -112 -25 -21 -49 -38 -54 -38 -4 0 -13 18 -19 40 -12 43
-33 52 -50 21 -15 -28 -13 -128 3 -134 23 -9 124 11 168 33 84 42 156 94 180
129 25 37 123 158 162 201 13 14 29 40 36 57 12 28 11 36 -3 58 -9 14 -24 25
-34 26 -26 2 -152 -2 -197 -6 -220 -19 -304 -11 -331 31 -13 18 -12 24 6 47
48 61 9 63 -68 3 -109 -86 -195 -106 -348 -81 -72 12 -111 24 -319 99 -38 14
-80 26 -92 26 -13 0 -30 12 -43 30 -33 46 -52 39 -84 -32z m38 -14 c12 -31 6
-110 -10 -133 -24 -34 -87 -90 -101 -91 -7 0 -13 -4 -13 -10 0 -13 -98 -142
-154 -202 -34 -37 -50 -48 -74 -48 -17 0 -34 5 -37 10 -13 21 242 300 273 300
21 0 81 69 91 105 5 18 6 44 4 59 -6 28 11 36 21 10z M4667 1811 c-42 -21 -85
-41 -94 -44 -10 -3 -50 -17 -90 -31 -96 -33 -173 -46 -279 -47 -112 0 -176 19
-224 66 -45 44 -71 43 -86 -3 -20 -63 -32 -66 -279 -63 -212 2 -224 1 -259
-19 -20 -12 -36 -27 -36 -34 0 -6 13 -24 30 -39 26 -25 89 -111 169 -230 25
-38 118 -91 183 -104 16 -3 28 -12 28 -20 0 -10 7 -14 18 -11 11 3 23 -2 30
-13 17 -26 75 -40 107 -26 24 11 26 16 20 51 -6 40 -69 125 -92 126 -8 0 -13
-13 -13 -34 0 -43 -11 -51 -41 -28 -21 16 -51 29 -166 73 -13 5 -40 42 -68 93
-26 47 -50 86 -55 86 -9 0 -40 56 -40 72 0 6 77 7 195 3 168 -7 207 -5 281 10
71 15 91 16 119 6 43 -15 239 -16 330 -1 106 17 251 55 310 82 11 5 32 10 48
11 29 2 29 2 87 -113 45 -89 111 -177 195 -258 47 -46 85 -91 85 -101 0 -9
-19 -32 -42 -51 -49 -41 -88 -82 -88 -92 0 -5 -7 -8 -16 -8 -10 0 -13 6 -10
18 7 22 -10 50 -22 37 -5 -6 -18 -39 -28 -75 -12 -42 -43 -102 -88 -170 -84
-127 -116 -184 -116 -204 0 -8 13 -17 30 -21 16 -4 39 -19 50 -35 12 -16 27
-27 34 -24 19 7 60 90 51 103 -3 6 1 14 9 17 17 7 22 44 6 44 -5 0 -10 -5 -10
-11 0 -5 -11 -26 -23 -45 -22 -32 -25 -33 -40 -17 -17 20 -17 21 57 148 67
116 147 207 274 313 62 52 67 78 20 119 -91 79 -218 226 -218 251 0 30 27 10
150 -108 110 -106 177 -144 163 -92 -7 28 -339 362 -360 362 -9 0 -63 65 -63
75 0 7 -42 44 -50 45 -3 0 -40 -17 -83 -39z M7165 1320 c3 -5 10 -10 16 -10 5
0 9 5 9 10 0 6 -7 10 -16 10 -8 0 -12 -4 -9 -10z M4880 850 c0 -5 5 -10 10
-10 6 0 10 5 10 10 0 6 -4 10 -10 10 -5 0 -10 -4 -10 -10z M7315 810 c-9 -14
28 -132 43 -137 21 -9 24 3 12 48 -22 88 -39 115 -55 89z"/>
</g>
</svg>